<svg width="100" height="132" viewBox="0 0 100 132" fill="none" xmlns="http://www.w3.org/2000/svg">
<path d="M34.7183 114.685V126.5H32.7803V121.332H27.2213V126.5H25.2833V114.685H27.2213V119.751H32.7803V114.685H34.7183ZM41.3326 126.653C40.4486 126.653 39.6496 126.455 38.9356 126.058C38.2216 125.65 37.6606 125.083 37.2526 124.358C36.8446 123.621 36.6406 122.771 36.6406 121.808C36.6406 120.856 36.8503 120.012 37.2696 119.275C37.689 118.538 38.2613 117.972 38.9866 117.575C39.712 117.178 40.5223 116.98 41.4176 116.98C42.313 116.98 43.1233 117.178 43.8486 117.575C44.574 117.972 45.1463 118.538 45.5656 119.275C45.985 120.012 46.1946 120.856 46.1946 121.808C46.1946 122.76 45.9793 123.604 45.5486 124.341C45.118 125.078 44.5286 125.65 43.7806 126.058C43.044 126.455 42.228 126.653 41.3326 126.653ZM41.3326 124.97C41.8313 124.97 42.296 124.851 42.7266 124.613C43.1686 124.375 43.5256 124.018 43.7976 123.542C44.0696 123.066 44.2056 122.488 44.2056 121.808C44.2056 121.128 44.0753 120.556 43.8146 120.091C43.554 119.615 43.2083 119.258 42.7776 119.02C42.347 118.782 41.8823 118.663 41.3836 118.663C40.885 118.663 40.4203 118.782 39.9896 119.02C39.5703 119.258 39.236 119.615 38.9866 120.091C38.7373 120.556 38.6126 121.128 38.6126 121.808C38.6126 122.817 38.8676 123.599 39.3776 124.154C39.899 124.698 40.5506 124.97 41.3326 124.97ZM59.4494 116.98C60.1861 116.98 60.8434 117.133 61.4214 117.439C62.0108 117.745 62.4698 118.198 62.7985 118.799C63.1385 119.4 63.3084 120.125 63.3084 120.975V126.5H61.3875V121.264C61.3875 120.425 61.1778 119.785 60.7585 119.343C60.3391 118.89 59.7668 118.663 59.0415 118.663C58.3161 118.663 57.7381 118.89 57.3075 119.343C56.8881 119.785 56.6785 120.425 56.6785 121.264V126.5H54.7574V121.264C54.7574 120.425 54.5478 119.785 54.1284 119.343C53.7091 118.89 53.1368 118.663 52.4114 118.663C51.6861 118.663 51.1081 118.89 50.6774 119.343C50.2581 119.785 50.0484 120.425 50.0484 121.264V126.5H48.1104V117.133H50.0484V118.204C50.3658 117.819 50.7681 117.518 51.2554 117.303C51.7428 117.088 52.2641 116.98 52.8194 116.98C53.5674 116.98 54.2361 117.139 54.8254 117.456C55.4148 117.773 55.8681 118.232 56.1854 118.833C56.4688 118.266 56.9108 117.819 57.5114 117.49C58.1121 117.15 58.7581 116.98 59.4494 116.98ZM74.3595 121.587C74.3595 121.938 74.3368 122.256 74.2915 122.539H67.1345C67.1912 123.287 67.4688 123.888 67.9675 124.341C68.4662 124.794 69.0782 125.021 69.8035 125.021C70.8462 125.021 71.5828 124.585 72.0135 123.712H74.1045C73.8212 124.573 73.3055 125.282 72.5575 125.837C71.8208 126.381 70.9028 126.653 69.8035 126.653C68.9082 126.653 68.1035 126.455 67.3895 126.058C66.6868 125.65 66.1315 125.083 65.7235 124.358C65.3268 123.621 65.1285 122.771 65.1285 121.808C65.1285 120.845 65.3212 120 65.7065 119.275C66.1032 118.538 66.6528 117.972 67.3555 117.575C68.0695 117.178 68.8855 116.98 69.8035 116.98C70.6875 116.98 71.4752 117.173 72.1665 117.558C72.8578 117.943 73.3962 118.487 73.7815 119.19C74.1668 119.881 74.3595 120.68 74.3595 121.587ZM72.3365 120.975C72.3252 120.261 72.0702 119.689 71.5715 119.258C71.0728 118.827 70.4552 118.612 69.7185 118.612C69.0498 118.612 68.4775 118.827 68.0015 119.258C67.5255 119.677 67.2422 120.25 67.1515 120.975H72.3365Z" fill="white"/>
<rect y="0.5" width="100" height="100" rx="16" fill="#3F92B6"/>
<path d="M49.9888 37.4022C49.8579 37.277 49.6838 37.2072 49.5028 37.2072C49.3217 37.2072 49.1476 37.277 49.0167 37.4022L32.8361 52.8595C32.7673 52.9252 32.7127 53.0042 32.6754 53.0917C32.638 53.1792 32.6189 53.2733 32.619 53.3684L32.6163 67.8756C32.6163 68.6216 32.9126 69.3369 33.4401 69.8644C33.9675 70.3918 34.6829 70.6881 35.4288 70.6881H43.8751C44.2481 70.6881 44.6058 70.54 44.8695 70.2762C45.1332 70.0125 45.2814 69.6548 45.2814 69.2819V57.3288C45.2814 57.1423 45.3554 56.9634 45.4873 56.8316C45.6192 56.6997 45.798 56.6256 45.9845 56.6256H53.0157C53.2022 56.6256 53.3811 56.6997 53.5129 56.8316C53.6448 56.9634 53.7189 57.1423 53.7189 57.3288V69.2819C53.7189 69.6548 53.867 70.0125 54.1308 70.2762C54.3945 70.54 54.7522 70.6881 55.1251 70.6881H63.5679C64.3138 70.6881 65.0292 70.3918 65.5566 69.8644C66.0841 69.3369 66.3804 68.6216 66.3804 67.8756V53.3684C66.3805 53.2733 66.3613 53.1792 66.324 53.0917C66.2867 53.0042 66.232 52.9252 66.1633 52.8595L49.9888 37.4022Z" fill="white"/>
<path d="M70.1464 49.9585L63.5722 43.6691V34.125C63.5722 33.752 63.424 33.3944 63.1603 33.1306C62.8966 32.8669 62.5389 32.7188 62.1659 32.7188H57.9472C57.5742 32.7188 57.2165 32.8669 56.9528 33.1306C56.6891 33.3944 56.5409 33.752 56.5409 34.125V36.9375L51.4503 32.0701C50.974 31.5885 50.2656 31.3125 49.5 31.3125C48.7371 31.3125 48.0305 31.5885 47.5541 32.071L28.8598 49.9568C28.3131 50.4841 28.2446 51.3516 28.742 51.9229C28.8669 52.0671 29.0199 52.1844 29.1916 52.2676C29.3633 52.3508 29.5501 52.3982 29.7407 52.4069C29.9313 52.4156 30.1216 52.3855 30.3002 52.3183C30.4787 52.2511 30.6418 52.1482 30.7793 52.016L49.0166 34.5891C49.1475 34.4639 49.3216 34.394 49.5027 34.394C49.6837 34.394 49.8578 34.4639 49.9887 34.5891L68.2278 52.016C68.4964 52.2737 68.8563 52.4143 69.2285 52.4071C69.6007 52.3998 69.9548 52.2453 70.2132 51.9774C70.7529 51.4184 70.708 50.4955 70.1464 49.9585Z" fill="white"/>
</svg>
