<svg width="100" height="130" viewBox="0 0 100 130" fill="none" xmlns="http://www.w3.org/2000/svg">
<path d="M19.628 123.436H23.623V125H17.69V113.185H19.628V123.436ZM33.8288 120.087C33.8288 120.438 33.8061 120.756 33.7608 121.039H26.6038C26.6604 121.787 26.9381 122.388 27.4368 122.841C27.9354 123.294 28.5474 123.521 29.2728 123.521C30.3154 123.521 31.0521 123.085 31.4828 122.212H33.5737C33.2904 123.073 32.7748 123.782 32.0268 124.337C31.2901 124.881 30.3721 125.153 29.2728 125.153C28.3774 125.153 27.5728 124.955 26.8588 124.558C26.1561 124.15 25.6008 123.583 25.1928 122.858C24.7961 122.121 24.5978 121.271 24.5978 120.308C24.5978 119.345 24.7904 118.5 25.1758 117.775C25.5724 117.038 26.1221 116.472 26.8248 116.075C27.5388 115.678 28.3548 115.48 29.2728 115.48C30.1568 115.48 30.9444 115.673 31.6358 116.058C32.3271 116.443 32.8654 116.987 33.2508 117.69C33.6361 118.381 33.8288 119.18 33.8288 120.087ZM31.8058 119.475C31.7944 118.761 31.5394 118.189 31.0408 117.758C30.5421 117.327 29.9244 117.112 29.1878 117.112C28.5191 117.112 27.9468 117.327 27.4708 117.758C26.9948 118.177 26.7114 118.75 26.6208 119.475H31.8058ZM39.1359 125.153C38.3993 125.153 37.7363 125.023 37.1469 124.762C36.5689 124.49 36.1099 124.127 35.7699 123.674C35.4299 123.209 35.2486 122.694 35.2259 122.127H37.2319C37.2659 122.524 37.4529 122.858 37.7929 123.13C38.1443 123.391 38.5806 123.521 39.1019 123.521C39.6459 123.521 40.0653 123.419 40.3599 123.215C40.6659 123 40.8189 122.728 40.8189 122.399C40.8189 122.048 40.6489 121.787 40.3089 121.617C39.9803 121.447 39.4533 121.26 38.7279 121.056C38.0253 120.863 37.4529 120.676 37.0109 120.495C36.5689 120.314 36.1836 120.036 35.8549 119.662C35.5376 119.288 35.3789 118.795 35.3789 118.183C35.3789 117.684 35.5263 117.231 35.8209 116.823C36.1156 116.404 36.5349 116.075 37.0789 115.837C37.6343 115.599 38.2689 115.48 38.9829 115.48C40.0483 115.48 40.9039 115.752 41.5499 116.296C42.2073 116.829 42.5586 117.56 42.6039 118.489H40.6659C40.6319 118.07 40.4619 117.735 40.1559 117.486C39.8499 117.237 39.4363 117.112 38.9149 117.112C38.4049 117.112 38.0139 117.208 37.7419 117.401C37.4699 117.594 37.3339 117.849 37.3339 118.166C37.3339 118.415 37.4246 118.625 37.6059 118.795C37.7873 118.965 38.0083 119.101 38.2689 119.203C38.5296 119.294 38.9149 119.413 39.4249 119.56C40.1049 119.741 40.6603 119.928 41.0909 120.121C41.5329 120.302 41.9126 120.574 42.2299 120.937C42.5473 121.3 42.7116 121.781 42.7229 122.382C42.7229 122.915 42.5756 123.391 42.2809 123.81C41.9863 124.229 41.5669 124.558 41.0229 124.796C40.4903 125.034 39.8613 125.153 39.1359 125.153ZM48.217 125.153C47.4803 125.153 46.8173 125.023 46.228 124.762C45.65 124.49 45.191 124.127 44.851 123.674C44.511 123.209 44.3297 122.694 44.307 122.127H46.313C46.347 122.524 46.534 122.858 46.874 123.13C47.2253 123.391 47.6617 123.521 48.183 123.521C48.727 123.521 49.1463 123.419 49.441 123.215C49.747 123 49.9 122.728 49.9 122.399C49.9 122.048 49.73 121.787 49.39 121.617C49.0613 121.447 48.5343 121.26 47.809 121.056C47.1063 120.863 46.534 120.676 46.092 120.495C45.65 120.314 45.2647 120.036 44.936 119.662C44.6187 119.288 44.46 118.795 44.46 118.183C44.46 117.684 44.6073 117.231 44.902 116.823C45.1967 116.404 45.616 116.075 46.16 115.837C46.7153 115.599 47.35 115.48 48.064 115.48C49.1293 115.48 49.985 115.752 50.631 116.296C51.2883 116.829 51.6397 117.56 51.685 118.489H49.747C49.713 118.07 49.543 117.735 49.237 117.486C48.931 117.237 48.5173 117.112 47.996 117.112C47.486 117.112 47.095 117.208 46.823 117.401C46.551 117.594 46.415 117.849 46.415 118.166C46.415 118.415 46.5057 118.625 46.687 118.795C46.8683 118.965 47.0893 119.101 47.35 119.203C47.6107 119.294 47.996 119.413 48.506 119.56C49.186 119.741 49.7413 119.928 50.172 120.121C50.614 120.302 50.9937 120.574 51.311 120.937C51.6283 121.3 51.7927 121.781 51.804 122.382C51.804 122.915 51.6567 123.391 51.362 123.81C51.0673 124.229 50.648 124.558 50.104 124.796C49.5713 125.034 48.9423 125.153 48.217 125.153ZM57.961 125.153C57.077 125.153 56.278 124.955 55.564 124.558C54.85 124.15 54.289 123.583 53.881 122.858C53.473 122.121 53.269 121.271 53.269 120.308C53.269 119.356 53.4787 118.512 53.898 117.775C54.3174 117.038 54.8897 116.472 55.615 116.075C56.3404 115.678 57.1507 115.48 58.046 115.48C58.9414 115.48 59.7517 115.678 60.477 116.075C61.2024 116.472 61.7747 117.038 62.194 117.775C62.6134 118.512 62.823 119.356 62.823 120.308C62.823 121.26 62.6077 122.104 62.177 122.841C61.7464 123.578 61.157 124.15 60.409 124.558C59.6724 124.955 58.8564 125.153 57.961 125.153ZM57.961 123.47C58.4597 123.47 58.9244 123.351 59.355 123.113C59.797 122.875 60.154 122.518 60.426 122.042C60.698 121.566 60.834 120.988 60.834 120.308C60.834 119.628 60.7037 119.056 60.443 118.591C60.1824 118.115 59.8367 117.758 59.406 117.52C58.9754 117.282 58.5107 117.163 58.012 117.163C57.5134 117.163 57.0487 117.282 56.618 117.52C56.1987 117.758 55.8644 118.115 55.615 118.591C55.3657 119.056 55.241 119.628 55.241 120.308C55.241 121.317 55.496 122.099 56.006 122.654C56.5274 123.198 57.179 123.47 57.961 123.47ZM69.4649 115.48C70.2015 115.48 70.8589 115.633 71.4369 115.939C72.0262 116.245 72.4852 116.698 72.8139 117.299C73.1425 117.9 73.3069 118.625 73.3069 119.475V125H71.3859V119.764C71.3859 118.925 71.1762 118.285 70.7569 117.843C70.3375 117.39 69.7652 117.163 69.0399 117.163C68.3145 117.163 67.7365 117.39 67.3059 117.843C66.8865 118.285 66.6769 118.925 66.6769 119.764V125H64.7389V115.633H66.6769V116.704C66.9942 116.319 67.3965 116.018 67.8839 115.803C68.3825 115.588 68.9095 115.48 69.4649 115.48ZM79.1789 125.153C78.4422 125.153 77.7792 125.023 77.1899 124.762C76.6119 124.49 76.1529 124.127 75.8129 123.674C75.4729 123.209 75.2916 122.694 75.2689 122.127H77.2749C77.3089 122.524 77.4959 122.858 77.8359 123.13C78.1872 123.391 78.6236 123.521 79.1449 123.521C79.6889 123.521 80.1082 123.419 80.4029 123.215C80.7089 123 80.8619 122.728 80.8619 122.399C80.8619 122.048 80.6919 121.787 80.3519 121.617C80.0232 121.447 79.4962 121.26 78.7709 121.056C78.0682 120.863 77.4959 120.676 77.0539 120.495C76.6119 120.314 76.2266 120.036 75.8979 119.662C75.5806 119.288 75.4219 118.795 75.4219 118.183C75.4219 117.684 75.5692 117.231 75.8639 116.823C76.1586 116.404 76.5779 116.075 77.1219 115.837C77.6772 115.599 78.3119 115.48 79.0259 115.48C80.0912 115.48 80.9469 115.752 81.5929 116.296C82.2502 116.829 82.6016 117.56 82.6469 118.489H80.7089C80.6749 118.07 80.5049 117.735 80.1989 117.486C79.8929 117.237 79.4792 117.112 78.9579 117.112C78.4479 117.112 78.0569 117.208 77.7849 117.401C77.5129 117.594 77.3769 117.849 77.3769 118.166C77.3769 118.415 77.4676 118.625 77.6489 118.795C77.8302 118.965 78.0512 119.101 78.3119 119.203C78.5726 119.294 78.9579 119.413 79.4679 119.56C80.1479 119.741 80.7032 119.928 81.1339 120.121C81.5759 120.302 81.9556 120.574 82.2729 120.937C82.5902 121.3 82.7546 121.781 82.7659 122.382C82.7659 122.915 82.6186 123.391 82.3239 123.81C82.0292 124.229 81.6099 124.558 81.0659 124.796C80.5332 125.034 79.9042 125.153 79.1789 125.153Z" fill="white"/>
<rect y="0.5" width="100" height="100" rx="16" fill="#954BE2"/>
<g filter="url(#filter0_d_1_602)">
<path d="M49.5 41.5623C50.9063 36.0111 56.2175 33.1766 67.7813 33.1248C67.9661 33.1241 68.1493 33.16 68.3202 33.2304C68.4912 33.3008 68.6465 33.4044 68.7772 33.5351C68.9079 33.6658 69.0115 33.8211 69.0819 33.992C69.1523 34.163 69.1882 34.3461 69.1875 34.531V59.8435C69.1875 60.2165 69.0393 60.5742 68.7756 60.8379C68.5119 61.1016 68.1542 61.2498 67.7813 61.2498C56.5313 61.2498 52.1851 63.5182 49.5 66.8748C46.8308 63.5349 42.4688 61.2498 31.2188 61.2498C30.3504 61.2498 29.8125 60.5422 29.8125 59.6739V34.531C29.8118 34.3461 29.8477 34.163 29.9181 33.992C29.9886 33.8211 30.0921 33.6658 30.2228 33.5351C30.3536 33.4044 30.5089 33.3008 30.6798 33.2304C30.8507 33.16 31.0339 33.1241 31.2188 33.1248C42.7825 33.1766 48.0938 36.0111 49.5 41.5623Z" fill="white" stroke="white" stroke-width="2.8125" stroke-linecap="round" stroke-linejoin="round"/>
<path d="M49.5 41.5625V66.875" stroke="white" stroke-width="2.8125" stroke-linecap="round" stroke-linejoin="round"/>
</g>
<defs>
<filter id="filter0_d_1_602" x="27" y="27.5" width="45" height="50.625" filterUnits="userSpaceOnUse" color-interpolation-filters="sRGB">
<feFlood flood-opacity="0" result="BackgroundImageFix"/>
<feColorMatrix in="SourceAlpha" type="matrix" values="0 0 0 0 0 0 0 0 0 0 0 0 0 0 0 0 0 0 127 0" result="hardAlpha"/>
<feOffset dy="5.625"/>
<feComposite in2="hardAlpha" operator="out"/>
<feColorMatrix type="matrix" values="0 0 0 0 0.270588 0 0 0 0 0.101961 0 0 0 0 0.811765 0 0 0 1 0"/>
<feBlend mode="normal" in2="BackgroundImageFix" result="effect1_dropShadow_1_602"/>
<feBlend mode="normal" in="SourceGraphic" in2="effect1_dropShadow_1_602" result="shape"/>
</filter>
</defs>
</svg>
