<svg width="56" height="56" viewBox="0 0 56 56" fill="none" xmlns="http://www.w3.org/2000/svg">
<rect opacity="0.8" width="56" height="56" rx="16" fill="#1C1C1C"/>
<g clip-path="url(#clip0_1_373)">
<path d="M38.6666 35.3334C39.1803 35.3337 39.6741 35.5315 40.0458 35.886C40.4176 36.2404 40.6387 36.7243 40.6633 37.2373C40.688 37.7503 40.5144 38.2532 40.1784 38.6417C39.8424 39.0302 39.3699 39.2745 38.8586 39.3241L38.6666 39.3334H17.3333C16.8197 39.3332 16.3259 39.1353 15.9541 38.7809C15.5824 38.4264 15.3613 37.9426 15.3366 37.4295C15.3119 36.9165 15.4856 36.4136 15.8215 36.0251C16.1575 35.6367 16.6301 35.3923 17.1413 35.3427L17.3333 35.3334H38.6666ZM38.6666 26.0001C39.1971 26.0001 39.7058 26.2108 40.0809 26.5859C40.4559 26.9609 40.6666 27.4696 40.6666 28.0001C40.6666 28.5305 40.4559 29.0392 40.0809 29.4143C39.7058 29.7894 39.1971 30.0001 38.6666 30.0001H17.3333C16.8029 30.0001 16.2942 29.7894 15.9191 29.4143C15.544 29.0392 15.3333 28.5305 15.3333 28.0001C15.3333 27.4696 15.544 26.9609 15.9191 26.5859C16.2942 26.2108 16.8029 26.0001 17.3333 26.0001H38.6666ZM38.6666 16.6667C39.1971 16.6667 39.7058 16.8775 40.0809 17.2525C40.4559 17.6276 40.6666 18.1363 40.6666 18.6667C40.6666 19.1972 40.4559 19.7059 40.0809 20.081C39.7058 20.456 39.1971 20.6667 38.6666 20.6667H17.3333C16.8029 20.6667 16.2942 20.456 15.9191 20.081C15.544 19.7059 15.3333 19.1972 15.3333 18.6667C15.3333 18.1363 15.544 17.6276 15.9191 17.2525C16.2942 16.8775 16.8029 16.6667 17.3333 16.6667H38.6666Z" fill="#F8F8F8"/>
</g>
<defs>
<clipPath id="clip0_1_373">
<rect width="32" height="32" fill="white" transform="translate(12 12)"/>
</clipPath>
</defs>
</svg>
