<svg width="60" height="64" viewBox="0 0 60 64" fill="none" xmlns="http://www.w3.org/2000/svg">
<g clip-path="url(#clip0_1_3391)">
<rect width="60" height="64" rx="4" fill="#9C9C9C"/>
<g clip-path="url(#clip1_1_3391)">
<path d="M55.4102 32.3294C56.4609 47.8799 44.1641 50.4016 29.7729 50.4016C15.3816 50.4016 2.7696 48.0901 4.13551 32.3294C5.33752 18.46 15.3816 11 29.7729 11C44.1641 11 54.5512 19.6158 55.4102 32.3294Z" fill="#F1F1F1"/>
<path fill-rule="evenodd" clip-rule="evenodd" d="M6.97632 22.2425C8.16712 20.4213 11.0741 16.7237 14.0161 16.4715C17.6936 16.1563 23.7877 18.9932 23.7877 26.3482V34.6488H29.6708V34.653H35.5548V26.3524C35.5548 18.9974 41.6489 16.1605 45.3264 16.4757C48.2684 16.7279 51.2804 20.5264 52.4712 22.3476C50.0432 17.118 45.1438 13.7675 40.1779 12.1642C36.2046 10.8814 32.256 10.7552 29.6717 10.8019V10.7977C27.0873 10.751 23.1383 10.877 19.1646 12.16C14.1987 13.7632 9.40435 17.0129 6.97632 22.2425Z" fill="#3C3135"/>
<path d="M25.8899 44.0973C20.5943 43.5089 16.9588 40.7 15.803 39.3691L43.9621 39.1589C41.6505 42.8364 32.5093 44.8328 25.8899 44.0973Z" fill="#DF921C"/>
<path d="M29.7782 42.4271C22.0449 42.6793 16.8194 40.0805 15.1733 38.7496C15.1733 38.4344 19.6913 32.7606 29.7782 32.4454C39.865 32.1301 44.278 38.7496 43.9627 39.0648C43.6475 39.38 39.4447 42.1119 29.7782 42.4271Z" fill="#FFC921"/>
<ellipse cx="37.0698" cy="35.9607" rx="1.26085" ry="0.840568" transform="rotate(36.3995 37.0698 35.9607)" fill="#2C2728"/>
<ellipse cx="1.26085" cy="0.840568" rx="1.26085" ry="0.840568" transform="matrix(-0.804899 0.593412 0.593412 0.804899 22.6664 34.5359)" fill="#2C2728"/>
<ellipse cx="47.8494" cy="29.5437" rx="4.88367" ry="6.4924" transform="rotate(-15.1343 47.8494 29.5437)" fill="#292826"/>
<ellipse cx="4.88367" cy="6.4924" rx="4.88367" ry="6.4924" transform="matrix(-0.965317 -0.261082 -0.261082 0.965317 17.9047 24.4774)" fill="#292826"/>
</g>
<path d="M11.6007 47.3546L10.1297 48.7205C11.2855 52.1879 20.8766 51.8727 31.4591 51.8727C39.4445 51.8727 45.3635 50.0865 48.0603 48.5104L47.4299 47.3546H11.6007Z" fill="#F1F1F1"/>
<path d="M48.189 48.1952C48.8194 48.5805 50.0803 49.393 50.0803 49.5611C50.0803 49.7713 54.9136 52.5031 55.9643 54.8147C57.015 57.1262 61.7432 66.0573 61.9533 66.1623C62.1635 66.2674 62.2685 66.8978 62.6888 67.108C63.1091 67.3181 64.1598 67.5283 64.1598 68.3688C64.1598 69.2094 63.1091 71.7311 62.3736 72.4666C61.6381 73.2021 60.062 74.3579 58.6961 73.6224C57.3302 72.8869 58.0657 72.0463 57.8556 71.626C57.7214 71.3577 57.4587 71.0465 57.177 70.6105C57.0238 70.8559 57.0149 71.4159 57.0149 71.9412C57.0149 72.4666 57.6453 74.3579 57.5402 75.1984C57.4352 76.039 56.6998 76.8796 53.8628 78.7709C51.0258 80.6621 39.7832 81.6078 38.9427 81.7129C38.1021 81.8179 24.9682 82.1331 15.3017 81.1875C5.63514 80.2419 3.53372 77.7202 2.37794 76.6694C1.22216 75.6187 1.4323 73.4122 1.85259 72.8869C2.18881 72.4666 2.12043 71.2408 2.04421 70.6804C1.95256 70.8825 1.88632 70.9956 1.85259 70.9956C1.53737 70.9956 1.22216 71.626 1.11709 72.2565C1.01202 72.8869 -0.353906 74.463 -2.14011 73.6224C-3.92632 72.7818 -4.7668 69.7348 -4.97694 68.684C-5.18709 67.6333 -3.92623 67.3181 -3.61102 67.213C-3.29581 67.108 -2.98059 66.6877 -2.87552 66.1623C-2.77045 65.637 -0.563959 62.1696 1.22225 58.0719C3.00846 53.9741 8.15694 49.9814 8.47215 49.7713C8.72432 49.6031 9.97817 48.6505 10.5736 48.1952C10.8888 49.6662 18.7691 50.7169 30.7472 51.0321C40.3297 51.2843 46.3678 49.2459 48.189 48.1952Z" fill="#980808"/>
<path d="M23.983 64.0144C24.0364 63.9547 24.1009 63.906 24.1731 63.8711C24.2452 63.8363 24.3235 63.816 24.4035 63.8115C24.4835 63.8069 24.5636 63.8181 24.6392 63.8445C24.7148 63.8709 24.7845 63.9119 24.8443 63.9652L26.7911 65.7016L25.979 66.6121L24.0322 64.8758C23.9724 64.8224 23.9237 64.7579 23.8889 64.6857C23.8541 64.6136 23.8338 64.5353 23.8292 64.4553C23.8247 64.3753 23.8359 64.2952 23.8623 64.2196C23.8887 64.1439 23.9297 64.0742 23.983 64.0144Z" fill="white"/>
<path d="M34.7506 66.6119L33.9385 65.7014L35.8853 63.9651C36.0061 63.8574 36.1646 63.8021 36.3262 63.8113C36.4877 63.8205 36.6389 63.8936 36.7466 64.0143C36.8543 64.135 36.9096 64.2936 36.9004 64.4551C36.8912 64.6167 36.8181 64.7679 36.6974 64.8756L34.7506 66.6119Z" fill="white"/>
<path d="M35.5606 67.7415C35.9948 69.6646 36.5893 70.9018 36.2933 71.6123C36.1377 71.9858 35.8183 72.299 35.2896 72.299C34.4654 72.299 34.4654 71.327 33.6412 71.327C32.817 71.327 32.8171 72.299 31.993 72.299C31.1689 72.299 31.169 71.327 30.3449 71.327C29.5209 71.327 29.5208 72.299 28.6968 72.299C27.8727 72.299 27.8727 71.327 27.0487 71.327C26.2247 71.327 26.2248 72.299 25.4008 72.299C24.9116 72.299 24.6351 72.0109 24.4597 71.6779C24.0382 70.878 25.0205 69.1178 25.4008 67.5656C25.821 65.8504 25.7856 63.7141 25.842 62.4256C25.9508 59.9408 27.8581 57.9221 30.3455 57.9221C32.8328 57.9221 34.6677 59.945 34.8489 62.4256C34.9466 63.7628 35.1631 65.9812 35.5606 67.7415Z" fill="white"/>
<path d="M28.6515 62.716C28.9272 62.716 29.1507 62.4925 29.1507 62.2168C29.1507 61.9411 28.9272 61.7177 28.6515 61.7177C28.3758 61.7177 28.1523 61.9411 28.1523 62.2168C28.1523 62.4925 28.3758 62.716 28.6515 62.716Z" fill="#292A2E"/>
<path d="M32.0736 62.716C32.3493 62.716 32.5728 62.4925 32.5728 62.2168C32.5728 61.9411 32.3493 61.7177 32.0736 61.7177C31.7979 61.7177 31.5744 61.9411 31.5744 62.2168C31.5744 62.4925 31.7979 62.716 32.0736 62.716Z" fill="#292A2E"/>
<path d="M31.2598 63.5643C31.2886 63.5643 31.3171 63.5706 31.3431 63.5829C31.3691 63.5952 31.3921 63.6132 31.4104 63.6355C31.4286 63.6578 31.4416 63.6839 31.4485 63.7119C31.4554 63.7399 31.4559 63.769 31.4501 63.7973C31.3431 64.2978 30.8983 64.6124 30.3658 64.6124C29.8334 64.6124 29.3886 64.2979 29.2816 63.7973C29.2758 63.769 29.2763 63.7399 29.2832 63.7119C29.2901 63.6839 29.3031 63.6578 29.3213 63.6355C29.3396 63.6132 29.3626 63.5952 29.3886 63.5829C29.4147 63.5706 29.4431 63.5643 29.472 63.5643H31.2598Z" fill="white"/>
<path d="M30.3655 64.6731C29.7918 64.6731 29.3322 64.3262 29.2218 63.8099C29.2139 63.7732 29.2144 63.7351 29.2232 63.6986C29.232 63.662 29.2489 63.6279 29.2727 63.5988C29.2966 63.5691 29.3269 63.5451 29.3613 63.5287C29.3957 63.5122 29.4334 63.5037 29.4716 63.5038H31.2595C31.2977 63.5037 31.3354 63.5122 31.3698 63.5287C31.4042 63.5451 31.4345 63.5691 31.4585 63.5988C31.4822 63.6279 31.4991 63.662 31.5079 63.6986C31.5167 63.7351 31.5172 63.7732 31.5093 63.8099C31.3987 64.3262 30.939 64.6731 30.3655 64.6731ZM29.4715 63.6251C29.4514 63.6251 29.4317 63.6295 29.4136 63.6382C29.3955 63.6468 29.3796 63.6594 29.367 63.675C29.3547 63.6901 29.3459 63.7078 29.3413 63.7268C29.3367 63.7457 29.3365 63.7655 29.3405 63.7846C29.4386 64.2434 29.8505 64.5516 30.3654 64.5516C30.8803 64.5516 31.2921 64.2434 31.3903 63.7846C31.3943 63.7655 31.394 63.7457 31.3894 63.7268C31.3848 63.7078 31.3761 63.6901 31.3637 63.675C31.3512 63.6594 31.3352 63.6468 31.3172 63.6382C31.2991 63.6295 31.2793 63.6251 31.2593 63.6251H29.4715Z" fill="#292A2E"/>
</g>
<defs>
<clipPath id="clip0_1_3391">
<rect width="60" height="64" rx="4" fill="white"/>
</clipPath>
<clipPath id="clip1_1_3391">
<rect width="51.439" height="39.4016" fill="white" transform="translate(4.03455 11)"/>
</clipPath>
</defs>
</svg>
