<svg width="152" height="199" viewBox="0 0 152 199" fill="none" xmlns="http://www.w3.org/2000/svg">
<path d="M50.368 182.254C49.9995 181.885 50.2145 179.797 50.368 178.799C52.4413 175.804 37.9295 173.271 37.0081 176.726C36.0867 180.181 31.019 184.557 26.4121 186.861C21.8052 189.164 20.1928 192.619 20.8838 194.923C21.5749 197.226 24.339 197.687 25.03 198.148C25.7211 198.608 42.7665 199.53 48.2948 198.148C53.823 196.766 55.2051 192.619 55.2051 190.546C55.2051 188.473 50.8287 182.715 50.368 182.254Z" fill="#382E35"/>
<path d="M101.582 182.254C101.95 181.885 101.735 179.797 101.582 178.799C99.5084 175.804 114.02 173.271 114.942 176.726C115.863 180.181 120.931 184.557 125.538 186.861C130.144 189.164 131.757 192.619 131.066 194.923C130.375 197.226 127.611 197.687 126.92 198.148C126.229 198.608 109.183 199.53 103.655 198.148C98.1266 196.766 96.7446 192.619 96.7446 190.546C96.7446 188.473 101.121 182.715 101.582 182.254Z" fill="#382E35"/>
<path d="M48.8329 180.36C25.6143 175.753 17.9668 154.638 17.0455 144.656H134.751C131.075 172.458 110.21 178.716 107.819 179.433L107.801 179.438C105.498 180.129 77.8563 186.118 48.8329 180.36Z" fill="#F1F1F1"/>
<g clip-path="url(#clip0_1_6996)">
<path d="M132.44 46.7598C134.743 80.8507 107.785 86.379 76.2356 86.379C44.6862 86.379 17.0373 81.3114 20.0317 46.7598C22.6668 16.3544 44.6862 0 76.2356 0C107.785 0 130.556 18.8882 132.44 46.7598Z" fill="#F1F1F1"/>
<path fill-rule="evenodd" clip-rule="evenodd" d="M26.2589 24.647C28.8694 20.6544 35.2423 12.5482 41.6919 11.9954C49.754 11.3043 63.1139 17.5236 63.1139 33.6477V51.8449H76.0132V-0.443218C70.3476 -0.545607 61.6903 -0.26932 52.9788 2.5433C42.0922 6.05816 31.5818 13.1824 26.2589 24.647ZM125.998 24.8775C123.387 20.8849 116.784 12.5576 110.335 12.0048C102.273 11.3138 88.9126 17.5331 88.9126 33.6571V51.8543H76.0134V-0.433779C81.679 -0.536168 90.3363 -0.259882 99.0478 2.55274C109.934 6.0676 120.675 13.4129 125.998 24.8775Z" fill="#3C3135"/>
<path d="M67.7208 72.5586C56.1114 71.2687 48.1415 65.1108 45.6077 62.1931L107.34 61.7324C102.272 69.7945 82.2324 74.171 67.7208 72.5586Z" fill="#DF921C"/>
<path d="M76.2431 68.8968C59.2898 69.4496 47.834 63.7525 44.2253 60.8348C44.2253 60.1437 54.1301 47.7052 76.2431 47.0141C98.3561 46.3231 108.031 60.8348 107.34 61.5258C106.649 62.2168 97.4348 68.2058 76.2431 68.8968Z" fill="#FFC921"/>
<ellipse cx="92.23" cy="54.7212" rx="2.76413" ry="1.84275" transform="rotate(36.3995 92.23 54.7212)" fill="#2C2728"/>
<ellipse cx="2.76413" cy="1.84275" rx="2.76413" ry="1.84275" transform="matrix(-0.804899 0.593412 0.593412 0.804899 60.6532 51.5977)" fill="#2C2728"/>
<ellipse cx="115.862" cy="40.6532" rx="10.7063" ry="14.2331" transform="rotate(-15.1343 115.862 40.6532)" fill="#292826"/>
<ellipse cx="10.7063" cy="14.2331" rx="10.7063" ry="14.2331" transform="matrix(-0.965317 -0.261082 -0.261082 0.965317 50.2147 29.5464)" fill="#292826"/>
</g>
<path d="M36.3941 79.6997L33.1693 82.6942C35.7031 90.2955 56.7295 89.6045 79.9291 89.6045C97.4353 89.6045 110.411 85.6886 116.323 82.2335L114.941 79.6997H36.3941Z" fill="#F1F1F1"/>
<path d="M116.606 81.542C117.988 82.3866 120.752 84.1679 120.752 84.5365C120.752 84.9972 131.348 90.9861 133.651 96.0537C135.954 101.121 146.32 120.7 146.781 120.931C147.241 121.161 147.472 122.543 148.393 123.004C149.314 123.465 151.618 123.925 151.618 125.768C151.618 127.611 149.314 133.139 147.702 134.751C146.09 136.364 142.634 138.898 139.64 137.285C136.645 135.673 138.258 133.83 137.797 132.909C137.503 132.32 136.927 131.638 136.31 130.682C135.974 131.22 135.954 132.448 135.954 133.6C135.954 134.751 137.336 138.898 137.106 140.74C136.876 142.583 135.263 144.426 129.044 148.572C122.824 152.718 98.1778 154.791 96.3351 155.022C94.4923 155.252 65.6993 155.943 44.5077 153.87C23.3161 151.797 18.7092 146.269 16.1754 143.965C13.6416 141.662 14.1023 136.825 15.0237 135.673C15.7608 134.751 15.6109 132.064 15.4438 130.836C15.2428 131.279 15.0976 131.527 15.0237 131.527C14.3326 131.527 13.6416 132.909 13.4113 134.291C13.1809 135.673 10.1865 139.128 6.2706 137.285C2.35476 135.442 0.512202 128.762 0.0515137 126.459C-0.409174 124.156 2.35495 123.465 3.04598 123.234C3.73702 123.004 4.42805 122.083 4.65839 120.931C4.88874 119.779 9.72596 112.178 13.6418 103.194C17.5577 94.2109 28.8445 85.4578 29.5355 84.9972C30.0884 84.6286 32.8371 82.5401 34.1424 81.542C34.8334 84.7668 52.1092 87.0702 78.3684 87.7613C99.3758 88.3141 112.613 83.8454 116.606 81.542Z" fill="#980808"/>
<path d="M6.98222 137.055C6.24512 137.055 3.14316 133.216 1.68431 131.296C1.3004 131.68 0.440453 132.909 0.071903 134.752C-0.388785 137.055 1.45397 140.049 3.06637 140.28C4.3563 140.464 6.21441 138.207 6.98222 137.055Z" fill="#F1F1F1"/>
<path d="M144.656 137.055C145.393 137.055 148.495 133.216 149.954 131.296C150.338 131.68 151.198 132.909 151.566 134.752C152.027 137.055 150.184 140.049 148.572 140.28C147.282 140.464 145.424 138.207 144.656 137.055Z" fill="#F1F1F1"/>
<path d="M63.5439 116.222C63.6608 116.091 63.8024 115.984 63.9606 115.907C64.1187 115.831 64.2904 115.787 64.4657 115.777C64.641 115.767 64.8166 115.791 64.9824 115.849C65.1482 115.907 65.3011 115.997 65.4321 116.114L69.7 119.92L67.9196 121.916L63.6518 118.11C63.5207 117.993 63.4139 117.851 63.3376 117.693C63.2612 117.535 63.2168 117.363 63.2068 117.188C63.1967 117.013 63.2214 116.837 63.2792 116.671C63.3371 116.505 63.427 116.353 63.5439 116.222Z" fill="white"/>
<path d="M87.1454 121.917L85.3651 119.92L89.6329 116.114C89.8976 115.878 90.2453 115.757 90.5994 115.777C90.9535 115.797 91.285 115.957 91.5211 116.222C91.7572 116.486 91.8785 116.834 91.8582 117.188C91.838 117.542 91.6779 117.874 91.4132 118.11L87.1454 121.917Z" fill="white"/>
<path d="M88.9215 124.393C89.8734 128.609 91.1768 131.321 90.5277 132.879C90.1866 133.698 89.4864 134.384 88.3273 134.384C86.5205 134.384 86.5205 132.253 84.7136 132.253C82.9067 132.253 82.907 134.384 81.1003 134.384C79.2936 134.384 79.2938 132.253 77.4873 132.253C75.6808 132.253 75.6807 134.384 73.8741 134.384C72.0675 134.384 72.0676 132.253 70.2611 132.253C68.4546 132.253 68.4548 134.384 66.6485 134.384C65.576 134.384 64.9698 133.753 64.5853 133.023C63.6613 131.269 65.8148 127.41 66.6485 124.007C67.5697 120.247 67.4921 115.564 67.6157 112.739C67.8542 107.292 72.0355 102.866 77.4885 102.866C82.9415 102.866 86.9641 107.301 87.3613 112.739C87.5754 115.671 88.05 120.534 88.9215 124.393Z" fill="white"/>
<path d="M73.7794 113.375C74.3838 113.375 74.8738 112.885 74.8738 112.281C74.8738 111.676 74.3838 111.187 73.7794 111.187C73.175 111.187 72.6851 111.676 72.6851 112.281C72.6851 112.885 73.175 113.375 73.7794 113.375Z" fill="#292A2E"/>
<path d="M81.2836 113.375C81.888 113.375 82.378 112.885 82.378 112.281C82.378 111.676 81.888 111.187 81.2836 111.187C80.6792 111.187 80.1892 111.676 80.1892 112.281C80.1892 112.885 80.6792 113.375 81.2836 113.375Z" fill="#292A2E"/>
<path d="M79.4918 115.235C79.555 115.235 79.6174 115.249 79.6745 115.276C79.7316 115.303 79.7819 115.343 79.8219 115.391C79.8619 115.44 79.8904 115.498 79.9055 115.559C79.9206 115.62 79.9218 115.684 79.9091 115.746C79.6745 116.843 78.6994 117.533 77.5321 117.533C76.3647 117.533 75.3896 116.844 75.155 115.746C75.1423 115.684 75.1435 115.62 75.1586 115.559C75.1737 115.497 75.2023 115.44 75.2422 115.391C75.2822 115.342 75.3326 115.303 75.3897 115.276C75.4468 115.249 75.5092 115.235 75.5724 115.235H79.4918Z" fill="white"/>
<path d="M77.5309 117.665C76.2733 117.665 75.2658 116.905 75.0237 115.773C75.0065 115.692 75.0076 115.609 75.0269 115.529C75.0462 115.449 75.0832 115.374 75.1352 115.31C75.1877 115.245 75.2541 115.192 75.3296 115.156C75.405 115.12 75.4877 115.101 75.5713 115.102H79.491C79.5746 115.101 79.6572 115.12 79.7327 115.156C79.8082 115.192 79.8746 115.245 79.9271 115.31C79.9791 115.374 80.0161 115.449 80.0354 115.529C80.0547 115.609 80.0558 115.692 80.0386 115.773C79.7961 116.905 78.7883 117.665 77.5309 117.665ZM75.5711 115.367C75.5272 115.367 75.4838 115.377 75.4441 115.396C75.4045 115.415 75.3696 115.443 75.342 115.477C75.315 115.51 75.2958 115.549 75.2857 115.59C75.2757 115.632 75.2751 115.675 75.284 115.717C75.499 116.723 76.4019 117.399 77.5308 117.399C78.6596 117.399 79.5625 116.723 79.7776 115.717C79.7865 115.675 79.7859 115.632 79.7758 115.59C79.7657 115.549 79.7464 115.51 79.7194 115.477C79.6918 115.443 79.657 115.415 79.6173 115.396C79.5777 115.377 79.5343 115.367 79.4904 115.367H75.5711Z" fill="#292A2E"/>
<defs>
<clipPath id="clip0_1_6996">
<rect width="112.768" height="86.379" fill="white" transform="translate(19.809)"/>
</clipPath>
</defs>
</svg>
