<svg width="100" height="131" viewBox="0 0 100 131" fill="none" xmlns="http://www.w3.org/2000/svg">
<path d="M33.7484 117.204C33.7484 117.805 33.6068 118.371 33.3234 118.904C33.0401 119.437 32.5868 119.873 31.9634 120.213C31.3401 120.542 30.5411 120.706 29.5664 120.706H27.4244V125.5H25.4864V113.685H29.5664C30.4731 113.685 31.2381 113.844 31.8614 114.161C32.4961 114.467 32.9664 114.886 33.2724 115.419C33.5898 115.952 33.7484 116.547 33.7484 117.204ZM29.5664 119.125C30.3031 119.125 30.8528 118.961 31.2154 118.632C31.5781 118.292 31.7594 117.816 31.7594 117.204C31.7594 115.912 31.0284 115.266 29.5664 115.266H27.4244V119.125H29.5664ZM37.5348 117.493C37.8181 117.017 38.1921 116.649 38.6568 116.388C39.1328 116.116 39.6938 115.98 40.3398 115.98V117.986H39.8468C39.0874 117.986 38.5094 118.179 38.1128 118.564C37.7274 118.949 37.5348 119.618 37.5348 120.57V125.5H35.5968V116.133H37.5348V117.493ZM46.1842 125.653C45.3002 125.653 44.5012 125.455 43.7872 125.058C43.0732 124.65 42.5122 124.083 42.1042 123.358C41.6962 122.621 41.4922 121.771 41.4922 120.808C41.4922 119.856 41.7019 119.012 42.1212 118.275C42.5405 117.538 43.1129 116.972 43.8382 116.575C44.5635 116.178 45.3739 115.98 46.2692 115.98C47.1645 115.98 47.9749 116.178 48.7002 116.575C49.4255 116.972 49.9979 117.538 50.4172 118.275C50.8365 119.012 51.0462 119.856 51.0462 120.808C51.0462 121.76 50.8309 122.604 50.4002 123.341C49.9695 124.078 49.3802 124.65 48.6322 125.058C47.8955 125.455 47.0795 125.653 46.1842 125.653ZM46.1842 123.97C46.6829 123.97 47.1475 123.851 47.5782 123.613C48.0202 123.375 48.3772 123.018 48.6492 122.542C48.9212 122.066 49.0572 121.488 49.0572 120.808C49.0572 120.128 48.9269 119.556 48.6662 119.091C48.4055 118.615 48.0599 118.258 47.6292 118.02C47.1985 117.782 46.7339 117.663 46.2352 117.663C45.7365 117.663 45.2719 117.782 44.8412 118.02C44.4219 118.258 44.0875 118.615 43.8382 119.091C43.5889 119.556 43.4642 120.128 43.4642 120.808C43.4642 121.817 43.7192 122.599 44.2292 123.154C44.7505 123.698 45.4022 123.97 46.1842 123.97ZM56.889 117.714H55.155V125.5H53.2V117.714H52.095V116.133H53.2V115.47C53.2 114.393 53.4833 113.611 54.05 113.124C54.628 112.625 55.529 112.376 56.753 112.376V113.991C56.1637 113.991 55.75 114.104 55.512 114.331C55.274 114.546 55.155 114.926 55.155 115.47V116.133H56.889V117.714ZM59.5925 114.892C59.2412 114.892 58.9465 114.773 58.7085 114.535C58.4705 114.297 58.3515 114.002 58.3515 113.651C58.3515 113.3 58.4705 113.005 58.7085 112.767C58.9465 112.529 59.2412 112.41 59.5925 112.41C59.9325 112.41 60.2215 112.529 60.4595 112.767C60.6975 113.005 60.8165 113.3 60.8165 113.651C60.8165 114.002 60.6975 114.297 60.4595 114.535C60.2215 114.773 59.9325 114.892 59.5925 114.892ZM60.5445 116.133V125.5H58.6065V116.133H60.5445ZM65.027 112.92V125.5H63.089V112.92H65.027ZM76.1564 120.587C76.1564 120.938 76.1337 121.256 76.0884 121.539H68.9314C68.9881 122.287 69.2657 122.888 69.7644 123.341C70.2631 123.794 70.8751 124.021 71.6004 124.021C72.6431 124.021 73.3797 123.585 73.8104 122.712H75.9014C75.6181 123.573 75.1024 124.282 74.3544 124.837C73.6177 125.381 72.6997 125.653 71.6004 125.653C70.7051 125.653 69.9004 125.455 69.1864 125.058C68.4837 124.65 67.9284 124.083 67.5204 123.358C67.1237 122.621 66.9254 121.771 66.9254 120.808C66.9254 119.845 67.1181 119 67.5034 118.275C67.9001 117.538 68.4497 116.972 69.1524 116.575C69.8664 116.178 70.6824 115.98 71.6004 115.98C72.4844 115.98 73.2721 116.173 73.9634 116.558C74.6547 116.943 75.1931 117.487 75.5784 118.19C75.9637 118.881 76.1564 119.68 76.1564 120.587ZM74.1334 119.975C74.1221 119.261 73.8671 118.689 73.3684 118.258C72.8697 117.827 72.2521 117.612 71.5154 117.612C70.8467 117.612 70.2744 117.827 69.7984 118.258C69.3224 118.677 69.0391 119.25 68.9484 119.975H74.1334Z" fill="white"/>
<rect y="0.5" width="100" height="100" rx="16" fill="#FD8C73"/>
<g filter="url(#filter0_d_1_610)">
<path d="M57.4935 40.1562C57.149 44.803 53.6264 47.1875 49.7592 47.1875C45.892 47.1875 42.3632 44.8039 42.0248 40.1562C41.6732 35.3223 45.101 31.7188 49.7592 31.7188C54.4174 31.7188 57.8451 35.4102 57.4935 40.1562Z" fill="white"/>
<path d="M57.4935 40.1562C57.149 44.803 53.6264 47.1875 49.7592 47.1875C45.892 47.1875 42.3632 44.8039 42.0248 40.1562C41.6732 35.3223 45.101 31.7188 49.7592 31.7188C54.4174 31.7188 57.8451 35.4102 57.4935 40.1562Z" stroke="white" stroke-width="2.8125" stroke-linecap="round" stroke-linejoin="round"/>
</g>
<g filter="url(#filter1_d_1_610)">
<path d="M49.5002 52.8125C41.8537 52.8125 34.093 57.0313 32.6569 64.9941C32.4837 65.9539 33.0269 66.875 34.0315 66.875H64.969C65.9744 66.875 66.5176 65.9539 66.3444 64.9941C64.9074 57.0313 57.1467 52.8125 49.5002 52.8125Z" fill="white"/>
<path d="M49.5002 52.8125C41.8537 52.8125 34.093 57.0313 32.6569 64.9941C32.4837 65.9539 33.0269 66.875 34.0315 66.875H64.969C65.9744 66.875 66.5176 65.9539 66.3444 64.9941C64.9074 57.0313 57.1467 52.8125 49.5002 52.8125Z" stroke="white" stroke-width="2.8125" stroke-miterlimit="10"/>
</g>
<defs>
<filter id="filter0_d_1_610" x="40.5938" y="30.3125" width="18.3308" height="21.2813" filterUnits="userSpaceOnUse" color-interpolation-filters="sRGB">
<feFlood flood-opacity="0" result="BackgroundImageFix"/>
<feColorMatrix in="SourceAlpha" type="matrix" values="0 0 0 0 0 0 0 0 0 0 0 0 0 0 0 0 0 0 127 0" result="hardAlpha"/>
<feOffset dy="3"/>
<feComposite in2="hardAlpha" operator="out"/>
<feColorMatrix type="matrix" values="0 0 0 0 0.917587 0 0 0 0 0.468523 0 0 0 0 0.369173 0 0 0 1 0"/>
<feBlend mode="normal" in2="BackgroundImageFix" result="effect1_dropShadow_1_610"/>
<feBlend mode="normal" in="SourceGraphic" in2="effect1_dropShadow_1_610" result="shape"/>
</filter>
<filter id="filter1_d_1_610" x="31.219" y="51.4062" width="36.5634" height="19.875" filterUnits="userSpaceOnUse" color-interpolation-filters="sRGB">
<feFlood flood-opacity="0" result="BackgroundImageFix"/>
<feColorMatrix in="SourceAlpha" type="matrix" values="0 0 0 0 0 0 0 0 0 0 0 0 0 0 0 0 0 0 127 0" result="hardAlpha"/>
<feOffset dy="3"/>
<feComposite in2="hardAlpha" operator="out"/>
<feColorMatrix type="matrix" values="0 0 0 0 0.917587 0 0 0 0 0.468523 0 0 0 0 0.369173 0 0 0 1 0"/>
<feBlend mode="normal" in2="BackgroundImageFix" result="effect1_dropShadow_1_610"/>
<feBlend mode="normal" in="SourceGraphic" in2="effect1_dropShadow_1_610" result="shape"/>
</filter>
</defs>
</svg>
