<svg width="100" height="131" viewBox="0 0 100 131" fill="none" xmlns="http://www.w3.org/2000/svg">
<path d="M16.6294 125.619C15.8361 125.619 15.1221 125.483 14.4874 125.211C13.8528 124.928 13.3541 124.531 12.9914 124.021C12.6288 123.511 12.4474 122.916 12.4474 122.236H14.5214C14.5668 122.746 14.7651 123.165 15.1164 123.494C15.4791 123.823 15.9834 123.987 16.6294 123.987C17.2981 123.987 17.8194 123.828 18.1934 123.511C18.5674 123.182 18.7544 122.763 18.7544 122.253C18.7544 121.856 18.6354 121.533 18.3974 121.284C18.1708 121.035 17.8818 120.842 17.5304 120.706C17.1904 120.57 16.7144 120.423 16.1024 120.264C15.3318 120.06 14.7028 119.856 14.2154 119.652C13.7394 119.437 13.3314 119.108 12.9914 118.666C12.6514 118.224 12.4814 117.635 12.4814 116.898C12.4814 116.218 12.6514 115.623 12.9914 115.113C13.3314 114.603 13.8074 114.212 14.4194 113.94C15.0314 113.668 15.7398 113.532 16.5444 113.532C17.6891 113.532 18.6241 113.821 19.3494 114.399C20.0861 114.966 20.4941 115.748 20.5734 116.745H18.4314C18.3974 116.314 18.1934 115.946 17.8194 115.64C17.4454 115.334 16.9524 115.181 16.3404 115.181C15.7851 115.181 15.3318 115.323 14.9804 115.606C14.6291 115.889 14.4534 116.297 14.4534 116.83C14.4534 117.193 14.5611 117.493 14.7764 117.731C15.0031 117.958 15.2864 118.139 15.6264 118.275C15.9664 118.411 16.4311 118.558 17.0204 118.717C17.8024 118.932 18.4371 119.148 18.9244 119.363C19.4231 119.578 19.8424 119.913 20.1824 120.366C20.5338 120.808 20.7094 121.403 20.7094 122.151C20.7094 122.752 20.5451 123.318 20.2164 123.851C19.8991 124.384 19.4288 124.814 18.8054 125.143C18.1934 125.46 17.4681 125.619 16.6294 125.619ZM25.2572 117.714V122.899C25.2572 123.25 25.3365 123.505 25.4952 123.664C25.6652 123.811 25.9485 123.885 26.3452 123.885H27.5352V125.5H26.0052C25.1325 125.5 24.4639 125.296 23.9992 124.888C23.5345 124.48 23.3022 123.817 23.3022 122.899V117.714H22.1972V116.133H23.3022V113.804H25.2572V116.133H27.5352V117.714H25.2572ZM28.6754 120.774C28.6754 119.833 28.8681 119 29.2534 118.275C29.6501 117.55 30.1827 116.989 30.8514 116.592C31.5314 116.184 32.2794 115.98 33.0954 115.98C33.8321 115.98 34.4724 116.127 35.0164 116.422C35.5717 116.705 36.0137 117.062 36.3424 117.493V116.133H38.2974V125.5H36.3424V124.106C36.0137 124.548 35.5661 124.916 34.9994 125.211C34.4327 125.506 33.7867 125.653 33.0614 125.653C32.2567 125.653 31.5201 125.449 30.8514 125.041C30.1827 124.622 29.6501 124.044 29.2534 123.307C28.8681 122.559 28.6754 121.715 28.6754 120.774ZM36.3424 120.808C36.3424 120.162 36.2064 119.601 35.9344 119.125C35.6737 118.649 35.3281 118.286 34.8974 118.037C34.4667 117.788 34.0021 117.663 33.5034 117.663C33.0047 117.663 32.5401 117.788 32.1094 118.037C31.6787 118.275 31.3274 118.632 31.0554 119.108C30.7947 119.573 30.6644 120.128 30.6644 120.774C30.6644 121.42 30.7947 121.987 31.0554 122.474C31.3274 122.961 31.6787 123.335 32.1094 123.596C32.5514 123.845 33.0161 123.97 33.5034 123.97C34.0021 123.97 34.4667 123.845 34.8974 123.596C35.3281 123.347 35.6737 122.984 35.9344 122.508C36.2064 122.021 36.3424 121.454 36.3424 120.808ZM43.1039 117.714V122.899C43.1039 123.25 43.1832 123.505 43.3419 123.664C43.5119 123.811 43.7952 123.885 44.1919 123.885H45.3819V125.5H43.8519C42.9792 125.5 42.3105 125.296 41.8459 124.888C41.3812 124.48 41.1489 123.817 41.1489 122.899V117.714H40.0439V116.133H41.1489V113.804H43.1039V116.133H45.3819V117.714H43.1039ZM48.1541 114.892C47.8027 114.892 47.5081 114.773 47.2701 114.535C47.0321 114.297 46.9131 114.002 46.9131 113.651C46.9131 113.3 47.0321 113.005 47.2701 112.767C47.5081 112.529 47.8027 112.41 48.1541 112.41C48.4941 112.41 48.7831 112.529 49.0211 112.767C49.2591 113.005 49.3781 113.3 49.3781 113.651C49.3781 114.002 49.2591 114.297 49.0211 114.535C48.7831 114.773 48.4941 114.892 48.1541 114.892ZM49.1061 116.133V125.5H47.1681V116.133H49.1061ZM55.0505 125.653C54.3138 125.653 53.6508 125.523 53.0615 125.262C52.4835 124.99 52.0245 124.627 51.6845 124.174C51.3445 123.709 51.1632 123.194 51.1405 122.627H53.1465C53.1805 123.024 53.3675 123.358 53.7075 123.63C54.0588 123.891 54.4952 124.021 55.0165 124.021C55.5605 124.021 55.9798 123.919 56.2745 123.715C56.5805 123.5 56.7335 123.228 56.7335 122.899C56.7335 122.548 56.5635 122.287 56.2235 122.117C55.8948 121.947 55.3678 121.76 54.6425 121.556C53.9398 121.363 53.3675 121.176 52.9255 120.995C52.4835 120.814 52.0982 120.536 51.7695 120.162C51.4522 119.788 51.2935 119.295 51.2935 118.683C51.2935 118.184 51.4408 117.731 51.7355 117.323C52.0302 116.904 52.4495 116.575 52.9935 116.337C53.5488 116.099 54.1835 115.98 54.8975 115.98C55.9628 115.98 56.8185 116.252 57.4645 116.796C58.1218 117.329 58.4732 118.06 58.5185 118.989H56.5805C56.5465 118.57 56.3765 118.235 56.0705 117.986C55.7645 117.737 55.3508 117.612 54.8295 117.612C54.3195 117.612 53.9285 117.708 53.6565 117.901C53.3845 118.094 53.2485 118.349 53.2485 118.666C53.2485 118.915 53.3392 119.125 53.5205 119.295C53.7018 119.465 53.9228 119.601 54.1835 119.703C54.4442 119.794 54.8295 119.913 55.3395 120.06C56.0195 120.241 56.5748 120.428 57.0055 120.621C57.4475 120.802 57.8272 121.074 58.1445 121.437C58.4618 121.8 58.6262 122.281 58.6375 122.882C58.6375 123.415 58.4902 123.891 58.1955 124.31C57.9008 124.729 57.4815 125.058 56.9375 125.296C56.4048 125.534 55.7758 125.653 55.0505 125.653ZM62.9925 117.714V122.899C62.9925 123.25 63.0719 123.505 63.2305 123.664C63.4005 123.811 63.6839 123.885 64.0805 123.885H65.2705V125.5H63.7405C62.8679 125.5 62.1992 125.296 61.7345 124.888C61.2699 124.48 61.0375 123.817 61.0375 122.899V117.714H59.9325V116.133H61.0375V113.804H62.9925V116.133H65.2705V117.714H62.9925ZM68.0427 114.892C67.6914 114.892 67.3967 114.773 67.1587 114.535C66.9207 114.297 66.8017 114.002 66.8017 113.651C66.8017 113.3 66.9207 113.005 67.1587 112.767C67.3967 112.529 67.6914 112.41 68.0427 112.41C68.3827 112.41 68.6717 112.529 68.9097 112.767C69.1477 113.005 69.2667 113.3 69.2667 113.651C69.2667 114.002 69.1477 114.297 68.9097 114.535C68.6717 114.773 68.3827 114.892 68.0427 114.892ZM68.9947 116.133V125.5H67.0567V116.133H68.9947ZM70.8932 120.808C70.8932 119.845 71.0858 119 71.4712 118.275C71.8678 117.538 72.4118 116.972 73.1032 116.575C73.7945 116.178 74.5878 115.98 75.4832 115.98C76.6165 115.98 77.5515 116.252 78.2882 116.796C79.0362 117.329 79.5405 118.094 79.8012 119.091H77.7102C77.5402 118.626 77.2682 118.264 76.8942 118.003C76.5202 117.742 76.0498 117.612 75.4832 117.612C74.6898 117.612 74.0552 117.895 73.5792 118.462C73.1145 119.017 72.8822 119.799 72.8822 120.808C72.8822 121.817 73.1145 122.604 73.5792 123.171C74.0552 123.738 74.6898 124.021 75.4832 124.021C76.6052 124.021 77.3475 123.528 77.7102 122.542H79.8012C79.5292 123.494 79.0192 124.253 78.2712 124.82C77.5232 125.375 76.5938 125.653 75.4832 125.653C74.5878 125.653 73.7945 125.455 73.1032 125.058C72.4118 124.65 71.8678 124.083 71.4712 123.358C71.0858 122.621 70.8932 121.771 70.8932 120.808ZM85.1325 125.653C84.3959 125.653 83.7329 125.523 83.1435 125.262C82.5655 124.99 82.1065 124.627 81.7665 124.174C81.4265 123.709 81.2452 123.194 81.2225 122.627H83.2285C83.2625 123.024 83.4495 123.358 83.7895 123.63C84.1409 123.891 84.5772 124.021 85.0985 124.021C85.6425 124.021 86.0619 123.919 86.3565 123.715C86.6625 123.5 86.8155 123.228 86.8155 122.899C86.8155 122.548 86.6455 122.287 86.3055 122.117C85.9769 121.947 85.4499 121.76 84.7245 121.556C84.0219 121.363 83.4495 121.176 83.0075 120.995C82.5655 120.814 82.1802 120.536 81.8515 120.162C81.5342 119.788 81.3755 119.295 81.3755 118.683C81.3755 118.184 81.5229 117.731 81.8175 117.323C82.1122 116.904 82.5315 116.575 83.0755 116.337C83.6309 116.099 84.2655 115.98 84.9795 115.98C86.0449 115.98 86.9005 116.252 87.5465 116.796C88.2039 117.329 88.5552 118.06 88.6005 118.989H86.6625C86.6285 118.57 86.4585 118.235 86.1525 117.986C85.8465 117.737 85.4329 117.612 84.9115 117.612C84.4015 117.612 84.0105 117.708 83.7385 117.901C83.4665 118.094 83.3305 118.349 83.3305 118.666C83.3305 118.915 83.4212 119.125 83.6025 119.295C83.7839 119.465 84.0049 119.601 84.2655 119.703C84.5262 119.794 84.9115 119.913 85.4215 120.06C86.1015 120.241 86.6569 120.428 87.0875 120.621C87.5295 120.802 87.9092 121.074 88.2265 121.437C88.5439 121.8 88.7082 122.281 88.7195 122.882C88.7195 123.415 88.5722 123.891 88.2775 124.31C87.9829 124.729 87.5635 125.058 87.0195 125.296C86.4869 125.534 85.8579 125.653 85.1325 125.653Z" fill="white"/>
<rect y="0.5" width="100" height="100" rx="16" fill="#06A192"/>
<g filter="url(#filter0_d_1_606)">
<path d="M29.8125 30.3125V68.2812C29.8125 68.6542 29.9607 69.0119 30.2244 69.2756C30.4881 69.5393 30.8458 69.6875 31.2188 69.6875H69.1875" stroke="white" stroke-width="2.8125" stroke-linecap="round" stroke-linejoin="round" shape-rendering="crispEdges"/>
</g>
<g filter="url(#filter1_d_1_606)">
<path d="M40.7109 47.1875H37.1953C36.2245 47.1875 35.4375 47.9745 35.4375 48.9453V62.3047C35.4375 63.2755 36.2245 64.0625 37.1953 64.0625H40.7109C41.6818 64.0625 42.4688 63.2755 42.4688 62.3047V48.9453C42.4688 47.9745 41.6818 47.1875 40.7109 47.1875Z" fill="white"/>
</g>
<g filter="url(#filter2_d_1_606)">
<path d="M53.3672 42.9688H49.8516C48.8807 42.9688 48.0938 43.7557 48.0938 44.7266V62.3047C48.0938 63.2755 48.8807 64.0625 49.8516 64.0625H53.3672C54.338 64.0625 55.125 63.2755 55.125 62.3047V44.7266C55.125 43.7557 54.338 42.9688 53.3672 42.9688Z" fill="white"/>
</g>
<g filter="url(#filter3_d_1_606)">
<path d="M65.9923 37.3438H62.4767C61.5059 37.3438 60.7189 38.1307 60.7189 39.1016V62.3047C60.7189 63.2755 61.5059 64.0625 62.4767 64.0625H65.9923C66.9631 64.0625 67.7501 63.2755 67.7501 62.3047V39.1016C67.7501 38.1307 66.9631 37.3438 65.9923 37.3438Z" fill="white"/>
</g>
<defs>
<filter id="filter0_d_1_606" x="27.4062" y="28.9062" width="43.1875" height="45.1875" filterUnits="userSpaceOnUse" color-interpolation-filters="sRGB">
<feFlood flood-opacity="0" result="BackgroundImageFix"/>
<feColorMatrix in="SourceAlpha" type="matrix" values="0 0 0 0 0 0 0 0 0 0 0 0 0 0 0 0 0 0 127 0" result="hardAlpha"/>
<feOffset dx="-1" dy="3"/>
<feComposite in2="hardAlpha" operator="out"/>
<feColorMatrix type="matrix" values="0 0 0 0 0.027451 0 0 0 0 0.513726 0 0 0 0 0.466667 0 0 0 1 0"/>
<feBlend mode="normal" in2="BackgroundImageFix" result="effect1_dropShadow_1_606"/>
<feBlend mode="normal" in="SourceGraphic" in2="effect1_dropShadow_1_606" result="shape"/>
</filter>
<filter id="filter1_d_1_606" x="34.4375" y="47.1875" width="8.03125" height="19.875" filterUnits="userSpaceOnUse" color-interpolation-filters="sRGB">
<feFlood flood-opacity="0" result="BackgroundImageFix"/>
<feColorMatrix in="SourceAlpha" type="matrix" values="0 0 0 0 0 0 0 0 0 0 0 0 0 0 0 0 0 0 127 0" result="hardAlpha"/>
<feOffset dx="-1" dy="3"/>
<feComposite in2="hardAlpha" operator="out"/>
<feColorMatrix type="matrix" values="0 0 0 0 0.0290943 0 0 0 0 0.511813 0 0 0 0 0.465098 0 0 0 1 0"/>
<feBlend mode="normal" in2="BackgroundImageFix" result="effect1_dropShadow_1_606"/>
<feBlend mode="normal" in="SourceGraphic" in2="effect1_dropShadow_1_606" result="shape"/>
</filter>
<filter id="filter2_d_1_606" x="47.0938" y="42.9688" width="8.03125" height="24.0938" filterUnits="userSpaceOnUse" color-interpolation-filters="sRGB">
<feFlood flood-opacity="0" result="BackgroundImageFix"/>
<feColorMatrix in="SourceAlpha" type="matrix" values="0 0 0 0 0 0 0 0 0 0 0 0 0 0 0 0 0 0 127 0" result="hardAlpha"/>
<feOffset dx="-1" dy="3"/>
<feComposite in2="hardAlpha" operator="out"/>
<feColorMatrix type="matrix" values="0 0 0 0 0.0290943 0 0 0 0 0.511813 0 0 0 0 0.465098 0 0 0 1 0"/>
<feBlend mode="normal" in2="BackgroundImageFix" result="effect1_dropShadow_1_606"/>
<feBlend mode="normal" in="SourceGraphic" in2="effect1_dropShadow_1_606" result="shape"/>
</filter>
<filter id="filter3_d_1_606" x="59.7189" y="37.3438" width="8.03125" height="29.7188" filterUnits="userSpaceOnUse" color-interpolation-filters="sRGB">
<feFlood flood-opacity="0" result="BackgroundImageFix"/>
<feColorMatrix in="SourceAlpha" type="matrix" values="0 0 0 0 0 0 0 0 0 0 0 0 0 0 0 0 0 0 127 0" result="hardAlpha"/>
<feOffset dx="-1" dy="3"/>
<feComposite in2="hardAlpha" operator="out"/>
<feColorMatrix type="matrix" values="0 0 0 0 0.0290943 0 0 0 0 0.511813 0 0 0 0 0.465098 0 0 0 1 0"/>
<feBlend mode="normal" in2="BackgroundImageFix" result="effect1_dropShadow_1_606"/>
<feBlend mode="normal" in="SourceGraphic" in2="effect1_dropShadow_1_606" result="shape"/>
</filter>
</defs>
</svg>
